<svg xmlns="http://www.w3.org/2000/svg" xmlns:xlink="http://www.w3.org/1999/xlink" width="1080" zoomAndPan="magnify" viewBox="0 0 810 809.999993" height="1080" preserveAspectRatio="xMidYMid meet" version="1.0"><defs><g/></defs><rect x="-81" width="972" fill="#ffffff" y="-80.999999" height="971.999992" fill-opacity="1"/><rect x="-81" width="972" fill="#ffffff" y="-80.999999" height="971.999992" fill-opacity="1"/><rect x="-81" width="972" fill="#ffb90f" y="-80.999999" height="971.999992" fill-opacity="1"/><g fill="#d32f23" fill-opacity="0.4196"><g transform="translate(55.054705, 326.159909)"><g><path d="M 64.109375 0 C 62.179688 0 61.289062 -0.960938 61.4375 -2.890625 L 61.015625 -18.546875 C 61.148438 -18.828125 61.082031 -19.066406 60.8125 -19.265625 C 60.539062 -19.472656 60.265625 -19.578125 59.984375 -19.578125 L 42.046875 -19.578125 C 41.359375 -19.578125 40.878906 -19.234375 40.609375 -18.546875 L 36.6875 -2.890625 C 36.28125 -0.960938 35.113281 0 33.1875 0 L 1.859375 0 C -0.203125 0 -0.957031 -1.097656 -0.40625 -3.296875 L 44.9375 -141.625 C 45.488281 -143.40625 46.726562 -144.296875 48.65625 -144.296875 L 85.140625 -144.296875 C 87.054688 -144.296875 88.085938 -143.40625 88.234375 -141.625 L 99.5625 -3.296875 L 99.5625 -2.890625 C 99.5625 -0.960938 98.53125 0 96.46875 0 Z M 49.0625 -50.296875 C 48.789062 -49.609375 49 -49.265625 49.6875 -49.265625 L 59.375 -49.265625 C 59.78125 -49.265625 60.125 -49.609375 60.40625 -50.296875 L 59.578125 -88.4375 C 59.578125 -88.988281 59.40625 -89.226562 59.0625 -89.15625 C 58.71875 -89.082031 58.546875 -88.84375 58.546875 -88.4375 Z M 49.0625 -50.296875 "/></g></g></g><g fill="#d32f23" fill-opacity="0.4196"><g transform="translate(161.203593, 326.159909)"><g><path d="M 76.484375 -141.203125 C 76.617188 -142.171875 76.992188 -142.925781 77.609375 -143.46875 C 78.234375 -144.019531 79.023438 -144.296875 79.984375 -144.296875 L 111.109375 -144.296875 C 112.066406 -144.296875 112.785156 -144.019531 113.265625 -143.46875 C 113.753906 -142.925781 113.929688 -142.171875 113.796875 -141.203125 L 96.6875 -3.09375 C 96.539062 -2.132812 96.191406 -1.378906 95.640625 -0.828125 C 95.097656 -0.273438 94.34375 0 93.375 0 L 57.71875 0 C 56.070312 0 55.109375 -0.894531 54.828125 -2.6875 L 47 -65.96875 C 47 -66.375 46.859375 -66.578125 46.578125 -66.578125 C 46.304688 -66.578125 46.171875 -66.375 46.171875 -65.96875 L 38.75 -3.09375 C 38.613281 -2.132812 38.234375 -1.378906 37.609375 -0.828125 C 36.992188 -0.273438 36.273438 0 35.453125 0 L 4.125 0 C 3.300781 0 2.644531 -0.273438 2.15625 -0.828125 C 1.675781 -1.378906 1.507812 -2.132812 1.65625 -3.09375 L 18.546875 -141.203125 C 18.691406 -142.171875 19.070312 -142.925781 19.6875 -143.46875 C 20.300781 -144.019531 21.019531 -144.296875 21.84375 -144.296875 L 57.09375 -144.296875 C 58.75 -144.296875 59.710938 -143.40625 59.984375 -141.625 L 68.03125 -77.921875 C 68.03125 -77.503906 68.164062 -77.363281 68.4375 -77.5 C 68.707031 -77.644531 68.914062 -77.851562 69.0625 -78.125 Z M 76.484375 -141.203125 "/></g></g></g><g fill="#d32f23" fill-opacity="0.4196"><g transform="translate(266.734122, 326.159909)"><g><path d="M 44.109375 1.65625 C 31.878906 1.65625 22.257812 -1.675781 15.25 -8.34375 C 8.238281 -15.007812 4.734375 -24.046875 4.734375 -35.453125 C 4.734375 -36.828125 4.875 -39.164062 5.15625 -42.46875 L 12.578125 -101.828125 C 14.222656 -115.296875 19.546875 -126.015625 28.546875 -133.984375 C 37.546875 -141.960938 48.78125 -145.953125 62.25 -145.953125 C 74.34375 -145.953125 83.925781 -142.617188 91 -135.953125 C 98.082031 -129.285156 101.625 -120.25 101.625 -108.84375 C 101.625 -107.46875 101.488281 -105.128906 101.21875 -101.828125 L 94 -42.46875 C 92.351562 -29 86.992188 -18.273438 77.921875 -10.296875 C 68.847656 -2.328125 57.578125 1.65625 44.109375 1.65625 Z M 48.234375 -31.546875 C 50.296875 -31.546875 52.046875 -32.367188 53.484375 -34.015625 C 54.929688 -35.660156 55.863281 -37.925781 56.28125 -40.8125 L 63.90625 -103.484375 C 64.175781 -106.367188 63.832031 -108.632812 62.875 -110.28125 C 61.914062 -111.9375 60.40625 -112.765625 58.34375 -112.765625 C 56.144531 -112.765625 54.320312 -111.9375 52.875 -110.28125 C 51.425781 -108.632812 50.566406 -106.367188 50.296875 -103.484375 L 42.671875 -40.8125 C 42.535156 -40.257812 42.46875 -39.503906 42.46875 -38.546875 C 42.46875 -36.347656 42.984375 -34.628906 44.015625 -33.390625 C 45.046875 -32.160156 46.453125 -31.546875 48.234375 -31.546875 Z M 48.234375 -31.546875 "/></g></g></g><g fill="#d32f23" fill-opacity="0.4196"><g transform="translate(363.40173, 326.159909)"><g><path d="M 106.984375 -144.296875 C 107.804688 -144.296875 108.457031 -144.019531 108.9375 -143.46875 C 109.425781 -142.925781 109.597656 -142.171875 109.453125 -141.203125 L 106.15625 -114.203125 C 106.019531 -113.242188 105.675781 -112.488281 105.125 -111.9375 C 104.582031 -111.382812 103.828125 -111.109375 102.859375 -111.109375 L 78.953125 -111.109375 C 78.265625 -111.109375 77.921875 -110.765625 77.921875 -110.078125 L 64.734375 -3.09375 C 64.585938 -2.132812 64.238281 -1.378906 63.6875 -0.828125 C 63.144531 -0.273438 62.394531 0 61.4375 0 L 29.890625 0 C 28.929688 0 28.207031 -0.273438 27.71875 -0.828125 C 27.238281 -1.378906 27.066406 -2.132812 27.203125 -3.09375 L 40.40625 -110.078125 C 40.40625 -110.765625 40.0625 -111.109375 39.375 -111.109375 L 16.28125 -111.109375 C 15.320312 -111.109375 14.601562 -111.382812 14.125 -111.9375 C 13.644531 -112.488281 13.472656 -113.242188 13.609375 -114.203125 L 16.90625 -141.203125 C 17.039062 -142.171875 17.414062 -142.925781 18.03125 -143.46875 C 18.65625 -144.019531 19.445312 -144.296875 20.40625 -144.296875 Z M 106.984375 -144.296875 "/></g></g></g><g fill="#d32f23" fill-opacity="0.4196"><g transform="translate(463.161056, 326.159909)"><g><path d="M 67.8125 -141.203125 C 67.957031 -142.171875 68.300781 -142.925781 68.84375 -143.46875 C 69.394531 -144.019531 70.15625 -144.296875 71.125 -144.296875 L 102.65625 -144.296875 C 103.613281 -144.296875 104.332031 -144.019531 104.8125 -143.46875 C 105.300781 -142.925781 105.476562 -142.171875 105.34375 -141.203125 L 88.4375 -3.09375 C 88.300781 -2.132812 87.921875 -1.378906 87.296875 -0.828125 C 86.679688 -0.273438 85.894531 0 84.9375 0 L 53.390625 0 C 52.429688 0 51.707031 -0.273438 51.21875 -0.828125 C 50.738281 -1.378906 50.566406 -2.132812 50.703125 -3.09375 L 57.09375 -54.625 C 57.09375 -55.3125 56.820312 -55.65625 56.28125 -55.65625 L 46.59375 -55.65625 C 45.90625 -55.65625 45.5625 -55.3125 45.5625 -54.625 L 39.171875 -3.09375 C 39.023438 -2.132812 38.644531 -1.378906 38.03125 -0.828125 C 37.414062 -0.273438 36.695312 0 35.875 0 L 4.125 0 C 3.300781 0 2.644531 -0.273438 2.15625 -0.828125 C 1.675781 -1.378906 1.507812 -2.132812 1.65625 -3.09375 L 18.546875 -141.203125 C 18.691406 -142.171875 19.070312 -142.925781 19.6875 -143.46875 C 20.300781 -144.019531 21.019531 -144.296875 21.84375 -144.296875 L 53.59375 -144.296875 C 54.414062 -144.296875 55.066406 -144.019531 55.546875 -143.46875 C 56.035156 -142.925781 56.207031 -142.171875 56.0625 -141.203125 L 49.890625 -89.875 C 49.609375 -89.1875 49.878906 -88.84375 50.703125 -88.84375 L 60.40625 -88.84375 C 60.675781 -88.84375 60.914062 -88.945312 61.125 -89.15625 C 61.332031 -89.363281 61.4375 -89.601562 61.4375 -89.875 Z M 67.8125 -141.203125 "/></g></g></g><g fill="#d32f23" fill-opacity="0.4196"><g transform="translate(560.24089, 326.159909)"><g><path d="M 95.234375 -114.203125 C 95.097656 -113.242188 94.71875 -112.488281 94.09375 -111.9375 C 93.476562 -111.382812 92.691406 -111.109375 91.734375 -111.109375 L 53.390625 -111.109375 C 52.703125 -111.109375 52.359375 -110.765625 52.359375 -110.078125 L 49.890625 -89.875 C 49.609375 -89.1875 49.878906 -88.84375 50.703125 -88.84375 L 70.703125 -88.84375 C 71.671875 -88.84375 72.394531 -88.566406 72.875 -88.015625 C 73.351562 -87.472656 73.523438 -86.71875 73.390625 -85.75 L 70.09375 -58.75 C 69.675781 -56.6875 68.503906 -55.65625 66.578125 -55.65625 L 46.59375 -55.65625 C 45.90625 -55.65625 45.5625 -55.3125 45.5625 -54.625 L 43.078125 -34.21875 C 42.804688 -33.53125 43.082031 -33.1875 43.90625 -33.1875 L 82.25 -33.1875 C 83.207031 -33.1875 83.925781 -32.910156 84.40625 -32.359375 C 84.894531 -31.816406 85.070312 -31.0625 84.9375 -30.09375 L 81.625 -3.09375 C 81.488281 -2.132812 81.109375 -1.378906 80.484375 -0.828125 C 79.867188 -0.273438 79.082031 0 78.125 0 L 4.125 0 C 3.300781 0 2.644531 -0.273438 2.15625 -0.828125 C 1.675781 -1.378906 1.507812 -2.132812 1.65625 -3.09375 L 18.546875 -141.203125 C 18.691406 -142.171875 19.070312 -142.925781 19.6875 -143.46875 C 20.300781 -144.019531 21.019531 -144.296875 21.84375 -144.296875 L 95.859375 -144.296875 C 96.816406 -144.296875 97.535156 -144.019531 98.015625 -143.46875 C 98.492188 -142.925781 98.664062 -142.171875 98.53125 -141.203125 Z M 95.234375 -114.203125 "/></g></g></g><g fill="#d32f23" fill-opacity="0.4196"><g transform="translate(649.076162, 326.159909)"><g><path d="M 55.859375 0 C 54.210938 0 53.253906 -0.894531 52.984375 -2.6875 L 47 -54.625 C 47 -55.175781 46.789062 -55.453125 46.375 -55.453125 C 45.832031 -55.453125 45.5625 -55.109375 45.5625 -54.421875 L 39.171875 -3.09375 C 39.023438 -2.132812 38.644531 -1.378906 38.03125 -0.828125 C 37.414062 -0.273438 36.695312 0 35.875 0 L 4.125 0 C 3.300781 0 2.644531 -0.273438 2.15625 -0.828125 C 1.675781 -1.378906 1.507812 -2.132812 1.65625 -3.09375 L 18.546875 -141.203125 C 18.691406 -142.171875 19.070312 -142.925781 19.6875 -143.46875 C 20.300781 -144.019531 21.019531 -144.296875 21.84375 -144.296875 L 67 -144.296875 C 77.988281 -144.296875 86.675781 -140.789062 93.0625 -133.78125 C 99.457031 -126.769531 102.65625 -117.492188 102.65625 -105.953125 C 102.65625 -102.660156 102.519531 -100.117188 102.25 -98.328125 C 101.28125 -90.765625 99.144531 -83.992188 95.84375 -78.015625 C 92.550781 -72.046875 88.296875 -67.203125 83.078125 -63.484375 C 82.390625 -63.078125 82.179688 -62.597656 82.453125 -62.046875 L 91.3125 -3.5 L 91.3125 -2.6875 C 91.3125 -1.851562 91.035156 -1.195312 90.484375 -0.71875 C 89.941406 -0.238281 89.257812 0 88.4375 0 Z M 53.390625 -111.109375 C 52.703125 -111.109375 52.359375 -110.765625 52.359375 -110.078125 L 49.265625 -85.953125 C 49.265625 -85.273438 49.609375 -84.9375 50.296875 -84.9375 L 52.984375 -84.9375 C 56.273438 -84.9375 59.054688 -86.378906 61.328125 -89.265625 C 63.597656 -92.148438 64.734375 -96.132812 64.734375 -101.21875 C 64.734375 -104.375 63.972656 -106.8125 62.453125 -108.53125 C 60.941406 -110.25 58.882812 -111.109375 56.28125 -111.109375 Z M 53.390625 -111.109375 "/></g></g></g><g fill="#ffffff" fill-opacity="1"><g transform="translate(48.92717, 320.642648)"><g><path d="M 64.109375 0 C 62.179688 0 61.289062 -0.960938 61.4375 -2.890625 L 61.015625 -18.546875 C 61.148438 -18.828125 61.082031 -19.066406 60.8125 -19.265625 C 60.539062 -19.472656 60.265625 -19.578125 59.984375 -19.578125 L 42.046875 -19.578125 C 41.359375 -19.578125 40.878906 -19.234375 40.609375 -18.546875 L 36.6875 -2.890625 C 36.28125 -0.960938 35.113281 0 33.1875 0 L 1.859375 0 C -0.203125 0 -0.957031 -1.097656 -0.40625 -3.296875 L 44.9375 -141.625 C 45.488281 -143.40625 46.726562 -144.296875 48.65625 -144.296875 L 85.140625 -144.296875 C 87.054688 -144.296875 88.085938 -143.40625 88.234375 -141.625 L 99.5625 -3.296875 L 99.5625 -2.890625 C 99.5625 -0.960938 98.53125 0 96.46875 0 Z M 49.0625 -50.296875 C 48.789062 -49.609375 49 -49.265625 49.6875 -49.265625 L 59.375 -49.265625 C 59.78125 -49.265625 60.125 -49.609375 60.40625 -50.296875 L 59.578125 -88.4375 C 59.578125 -88.988281 59.40625 -89.226562 59.0625 -89.15625 C 58.71875 -89.082031 58.546875 -88.84375 58.546875 -88.4375 Z M 49.0625 -50.296875 "/></g></g></g><g fill="#ffffff" fill-opacity="1"><g transform="translate(155.076059, 320.642648)"><g><path d="M 76.484375 -141.203125 C 76.617188 -142.171875 76.992188 -142.925781 77.609375 -143.46875 C 78.234375 -144.019531 79.023438 -144.296875 79.984375 -144.296875 L 111.109375 -144.296875 C 112.066406 -144.296875 112.785156 -144.019531 113.265625 -143.46875 C 113.753906 -142.925781 113.929688 -142.171875 113.796875 -141.203125 L 96.6875 -3.09375 C 96.539062 -2.132812 96.191406 -1.378906 95.640625 -0.828125 C 95.097656 -0.273438 94.34375 0 93.375 0 L 57.71875 0 C 56.070312 0 55.109375 -0.894531 54.828125 -2.6875 L 47 -65.96875 C 47 -66.375 46.859375 -66.578125 46.578125 -66.578125 C 46.304688 -66.578125 46.171875 -66.375 46.171875 -65.96875 L 38.75 -3.09375 C 38.613281 -2.132812 38.234375 -1.378906 37.609375 -0.828125 C 36.992188 -0.273438 36.273438 0 35.453125 0 L 4.125 0 C 3.300781 0 2.644531 -0.273438 2.15625 -0.828125 C 1.675781 -1.378906 1.507812 -2.132812 1.65625 -3.09375 L 18.546875 -141.203125 C 18.691406 -142.171875 19.070312 -142.925781 19.6875 -143.46875 C 20.300781 -144.019531 21.019531 -144.296875 21.84375 -144.296875 L 57.09375 -144.296875 C 58.75 -144.296875 59.710938 -143.40625 59.984375 -141.625 L 68.03125 -77.921875 C 68.03125 -77.503906 68.164062 -77.363281 68.4375 -77.5 C 68.707031 -77.644531 68.914062 -77.851562 69.0625 -78.125 Z M 76.484375 -141.203125 "/></g></g></g><g fill="#ffffff" fill-opacity="1"><g transform="translate(260.606588, 320.642648)"><g><path d="M 44.109375 1.65625 C 31.878906 1.65625 22.257812 -1.675781 15.25 -8.34375 C 8.238281 -15.007812 4.734375 -24.046875 4.734375 -35.453125 C 4.734375 -36.828125 4.875 -39.164062 5.15625 -42.46875 L 12.578125 -101.828125 C 14.222656 -115.296875 19.546875 -126.015625 28.546875 -133.984375 C 37.546875 -141.960938 48.78125 -145.953125 62.25 -145.953125 C 74.34375 -145.953125 83.925781 -142.617188 91 -135.953125 C 98.082031 -129.285156 101.625 -120.25 101.625 -108.84375 C 101.625 -107.46875 101.488281 -105.128906 101.21875 -101.828125 L 94 -42.46875 C 92.351562 -29 86.992188 -18.273438 77.921875 -10.296875 C 68.847656 -2.328125 57.578125 1.65625 44.109375 1.65625 Z M 48.234375 -31.546875 C 50.296875 -31.546875 52.046875 -32.367188 53.484375 -34.015625 C 54.929688 -35.660156 55.863281 -37.925781 56.28125 -40.8125 L 63.90625 -103.484375 C 64.175781 -106.367188 63.832031 -108.632812 62.875 -110.28125 C 61.914062 -111.9375 60.40625 -112.765625 58.34375 -112.765625 C 56.144531 -112.765625 54.320312 -111.9375 52.875 -110.28125 C 51.425781 -108.632812 50.566406 -106.367188 50.296875 -103.484375 L 42.671875 -40.8125 C 42.535156 -40.257812 42.46875 -39.503906 42.46875 -38.546875 C 42.46875 -36.347656 42.984375 -34.628906 44.015625 -33.390625 C 45.046875 -32.160156 46.453125 -31.546875 48.234375 -31.546875 Z M 48.234375 -31.546875 "/></g></g></g><g fill="#ffffff" fill-opacity="1"><g transform="translate(357.274196, 320.642648)"><g><path d="M 106.984375 -144.296875 C 107.804688 -144.296875 108.457031 -144.019531 108.9375 -143.46875 C 109.425781 -142.925781 109.597656 -142.171875 109.453125 -141.203125 L 106.15625 -114.203125 C 106.019531 -113.242188 105.675781 -112.488281 105.125 -111.9375 C 104.582031 -111.382812 103.828125 -111.109375 102.859375 -111.109375 L 78.953125 -111.109375 C 78.265625 -111.109375 77.921875 -110.765625 77.921875 -110.078125 L 64.734375 -3.09375 C 64.585938 -2.132812 64.238281 -1.378906 63.6875 -0.828125 C 63.144531 -0.273438 62.394531 0 61.4375 0 L 29.890625 0 C 28.929688 0 28.207031 -0.273438 27.71875 -0.828125 C 27.238281 -1.378906 27.066406 -2.132812 27.203125 -3.09375 L 40.40625 -110.078125 C 40.40625 -110.765625 40.0625 -111.109375 39.375 -111.109375 L 16.28125 -111.109375 C 15.320312 -111.109375 14.601562 -111.382812 14.125 -111.9375 C 13.644531 -112.488281 13.472656 -113.242188 13.609375 -114.203125 L 16.90625 -141.203125 C 17.039062 -142.171875 17.414062 -142.925781 18.03125 -143.46875 C 18.65625 -144.019531 19.445312 -144.296875 20.40625 -144.296875 Z M 106.984375 -144.296875 "/></g></g></g><g fill="#ffffff" fill-opacity="1"><g transform="translate(457.033521, 320.642648)"><g><path d="M 67.8125 -141.203125 C 67.957031 -142.171875 68.300781 -142.925781 68.84375 -143.46875 C 69.394531 -144.019531 70.15625 -144.296875 71.125 -144.296875 L 102.65625 -144.296875 C 103.613281 -144.296875 104.332031 -144.019531 104.8125 -143.46875 C 105.300781 -142.925781 105.476562 -142.171875 105.34375 -141.203125 L 88.4375 -3.09375 C 88.300781 -2.132812 87.921875 -1.378906 87.296875 -0.828125 C 86.679688 -0.273438 85.894531 0 84.9375 0 L 53.390625 0 C 52.429688 0 51.707031 -0.273438 51.21875 -0.828125 C 50.738281 -1.378906 50.566406 -2.132812 50.703125 -3.09375 L 57.09375 -54.625 C 57.09375 -55.3125 56.820312 -55.65625 56.28125 -55.65625 L 46.59375 -55.65625 C 45.90625 -55.65625 45.5625 -55.3125 45.5625 -54.625 L 39.171875 -3.09375 C 39.023438 -2.132812 38.644531 -1.378906 38.03125 -0.828125 C 37.414062 -0.273438 36.695312 0 35.875 0 L 4.125 0 C 3.300781 0 2.644531 -0.273438 2.15625 -0.828125 C 1.675781 -1.378906 1.507812 -2.132812 1.65625 -3.09375 L 18.546875 -141.203125 C 18.691406 -142.171875 19.070312 -142.925781 19.6875 -143.46875 C 20.300781 -144.019531 21.019531 -144.296875 21.84375 -144.296875 L 53.59375 -144.296875 C 54.414062 -144.296875 55.066406 -144.019531 55.546875 -143.46875 C 56.035156 -142.925781 56.207031 -142.171875 56.0625 -141.203125 L 49.890625 -89.875 C 49.609375 -89.1875 49.878906 -88.84375 50.703125 -88.84375 L 60.40625 -88.84375 C 60.675781 -88.84375 60.914062 -88.945312 61.125 -89.15625 C 61.332031 -89.363281 61.4375 -89.601562 61.4375 -89.875 Z M 67.8125 -141.203125 "/></g></g></g><g fill="#ffffff" fill-opacity="1"><g transform="translate(554.113355, 320.642648)"><g><path d="M 95.234375 -114.203125 C 95.097656 -113.242188 94.71875 -112.488281 94.09375 -111.9375 C 93.476562 -111.382812 92.691406 -111.109375 91.734375 -111.109375 L 53.390625 -111.109375 C 52.703125 -111.109375 52.359375 -110.765625 52.359375 -110.078125 L 49.890625 -89.875 C 49.609375 -89.1875 49.878906 -88.84375 50.703125 -88.84375 L 70.703125 -88.84375 C 71.671875 -88.84375 72.394531 -88.566406 72.875 -88.015625 C 73.351562 -87.472656 73.523438 -86.71875 73.390625 -85.75 L 70.09375 -58.75 C 69.675781 -56.6875 68.503906 -55.65625 66.578125 -55.65625 L 46.59375 -55.65625 C 45.90625 -55.65625 45.5625 -55.3125 45.5625 -54.625 L 43.078125 -34.21875 C 42.804688 -33.53125 43.082031 -33.1875 43.90625 -33.1875 L 82.25 -33.1875 C 83.207031 -33.1875 83.925781 -32.910156 84.40625 -32.359375 C 84.894531 -31.816406 85.070312 -31.0625 84.9375 -30.09375 L 81.625 -3.09375 C 81.488281 -2.132812 81.109375 -1.378906 80.484375 -0.828125 C 79.867188 -0.273438 79.082031 0 78.125 0 L 4.125 0 C 3.300781 0 2.644531 -0.273438 2.15625 -0.828125 C 1.675781 -1.378906 1.507812 -2.132812 1.65625 -3.09375 L 18.546875 -141.203125 C 18.691406 -142.171875 19.070312 -142.925781 19.6875 -143.46875 C 20.300781 -144.019531 21.019531 -144.296875 21.84375 -144.296875 L 95.859375 -144.296875 C 96.816406 -144.296875 97.535156 -144.019531 98.015625 -143.46875 C 98.492188 -142.925781 98.664062 -142.171875 98.53125 -141.203125 Z M 95.234375 -114.203125 "/></g></g></g><g fill="#ffffff" fill-opacity="1"><g transform="translate(642.948627, 320.642648)"><g><path d="M 55.859375 0 C 54.210938 0 53.253906 -0.894531 52.984375 -2.6875 L 47 -54.625 C 47 -55.175781 46.789062 -55.453125 46.375 -55.453125 C 45.832031 -55.453125 45.5625 -55.109375 45.5625 -54.421875 L 39.171875 -3.09375 C 39.023438 -2.132812 38.644531 -1.378906 38.03125 -0.828125 C 37.414062 -0.273438 36.695312 0 35.875 0 L 4.125 0 C 3.300781 0 2.644531 -0.273438 2.15625 -0.828125 C 1.675781 -1.378906 1.507812 -2.132812 1.65625 -3.09375 L 18.546875 -141.203125 C 18.691406 -142.171875 19.070312 -142.925781 19.6875 -143.46875 C 20.300781 -144.019531 21.019531 -144.296875 21.84375 -144.296875 L 67 -144.296875 C 77.988281 -144.296875 86.675781 -140.789062 93.0625 -133.78125 C 99.457031 -126.769531 102.65625 -117.492188 102.65625 -105.953125 C 102.65625 -102.660156 102.519531 -100.117188 102.25 -98.328125 C 101.28125 -90.765625 99.144531 -83.992188 95.84375 -78.015625 C 92.550781 -72.046875 88.296875 -67.203125 83.078125 -63.484375 C 82.390625 -63.078125 82.179688 -62.597656 82.453125 -62.046875 L 91.3125 -3.5 L 91.3125 -2.6875 C 91.3125 -1.851562 91.035156 -1.195312 90.484375 -0.71875 C 89.941406 -0.238281 89.257812 0 88.4375 0 Z M 53.390625 -111.109375 C 52.703125 -111.109375 52.359375 -110.765625 52.359375 -110.078125 L 49.265625 -85.953125 C 49.265625 -85.273438 49.609375 -84.9375 50.296875 -84.9375 L 52.984375 -84.9375 C 56.273438 -84.9375 59.054688 -86.378906 61.328125 -89.265625 C 63.597656 -92.148438 64.734375 -96.132812 64.734375 -101.21875 C 64.734375 -104.375 63.972656 -106.8125 62.453125 -108.53125 C 60.941406 -110.25 58.882812 -111.109375 56.28125 -111.109375 Z M 53.390625 -111.109375 "/></g></g></g><g fill="#d32f23" fill-opacity="0.4196"><g transform="translate(8.481788, 490.186278)"><g><path d="M 43.5 1.65625 C 31.539062 1.65625 22.085938 -1.640625 15.140625 -8.234375 C 8.203125 -14.835938 4.734375 -23.84375 4.734375 -35.25 C 4.734375 -36.625 4.875 -38.960938 5.15625 -42.265625 L 12.578125 -102.453125 C 14.222656 -115.785156 19.507812 -126.367188 28.4375 -134.203125 C 37.375 -142.035156 48.441406 -145.953125 61.640625 -145.953125 C 73.585938 -145.953125 83.066406 -142.6875 90.078125 -136.15625 C 97.085938 -129.625 100.59375 -120.65625 100.59375 -109.25 C 100.59375 -108.019531 100.457031 -105.753906 100.1875 -102.453125 L 99.984375 -101.421875 C 99.835938 -100.460938 99.457031 -99.671875 98.84375 -99.046875 C 98.226562 -98.429688 97.507812 -98.125 96.6875 -98.125 L 64.9375 -97.09375 C 62.875 -97.09375 61.976562 -98.054688 62.25 -99.984375 L 62.875 -105.125 C 63.144531 -107.46875 62.800781 -109.328125 61.84375 -110.703125 C 60.882812 -112.078125 59.507812 -112.765625 57.71875 -112.765625 C 55.789062 -112.765625 54.175781 -112.078125 52.875 -110.703125 C 51.570312 -109.328125 50.78125 -107.46875 50.5 -105.125 L 42.46875 -38.953125 C 42.1875 -36.753906 42.492188 -34.96875 43.390625 -33.59375 C 44.285156 -32.226562 45.695312 -31.546875 47.625 -31.546875 C 49.539062 -31.546875 51.148438 -32.195312 52.453125 -33.5 C 53.765625 -34.800781 54.554688 -36.617188 54.828125 -38.953125 L 55.453125 -44.53125 C 55.585938 -45.488281 55.960938 -46.207031 56.578125 -46.6875 C 57.203125 -47.164062 57.925781 -47.40625 58.75 -47.40625 L 90.296875 -46.375 C 91.253906 -46.375 91.972656 -46.066406 92.453125 -45.453125 C 92.929688 -44.835938 93.101562 -44.046875 92.96875 -43.078125 L 92.765625 -42.265625 C 91.117188 -28.929688 85.789062 -18.273438 76.78125 -10.296875 C 67.78125 -2.328125 56.6875 1.65625 43.5 1.65625 Z M 43.5 1.65625 "/></g></g></g><g fill="#d32f23" fill-opacity="0.4196"><g transform="translate(103.706584, 490.186278)"><g><path d="M 44.109375 1.65625 C 31.878906 1.65625 22.257812 -1.675781 15.25 -8.34375 C 8.238281 -15.007812 4.734375 -24.046875 4.734375 -35.453125 C 4.734375 -36.828125 4.875 -39.164062 5.15625 -42.46875 L 12.578125 -101.828125 C 14.222656 -115.296875 19.546875 -126.015625 28.546875 -133.984375 C 37.546875 -141.960938 48.78125 -145.953125 62.25 -145.953125 C 74.34375 -145.953125 83.925781 -142.617188 91 -135.953125 C 98.082031 -129.285156 101.625 -120.25 101.625 -108.84375 C 101.625 -107.46875 101.488281 -105.128906 101.21875 -101.828125 L 94 -42.46875 C 92.351562 -29 86.992188 -18.273438 77.921875 -10.296875 C 68.847656 -2.328125 57.578125 1.65625 44.109375 1.65625 Z M 48.234375 -31.546875 C 50.296875 -31.546875 52.046875 -32.367188 53.484375 -34.015625 C 54.929688 -35.660156 55.863281 -37.925781 56.28125 -40.8125 L 63.90625 -103.484375 C 64.175781 -106.367188 63.832031 -108.632812 62.875 -110.28125 C 61.914062 -111.9375 60.40625 -112.765625 58.34375 -112.765625 C 56.144531 -112.765625 54.320312 -111.9375 52.875 -110.28125 C 51.425781 -108.632812 50.566406 -106.367188 50.296875 -103.484375 L 42.671875 -40.8125 C 42.535156 -40.257812 42.46875 -39.503906 42.46875 -38.546875 C 42.46875 -36.347656 42.984375 -34.628906 44.015625 -33.390625 C 45.046875 -32.160156 46.453125 -31.546875 48.234375 -31.546875 Z M 48.234375 -31.546875 "/></g></g></g><g fill="#d32f23" fill-opacity="0.4196"><g transform="translate(200.374192, 490.186278)"><g><path d="M 44.109375 1.65625 C 31.878906 1.65625 22.257812 -1.675781 15.25 -8.34375 C 8.238281 -15.007812 4.734375 -24.046875 4.734375 -35.453125 C 4.734375 -36.828125 4.875 -39.164062 5.15625 -42.46875 L 12.578125 -101.828125 C 14.222656 -115.296875 19.546875 -126.015625 28.546875 -133.984375 C 37.546875 -141.960938 48.78125 -145.953125 62.25 -145.953125 C 74.34375 -145.953125 83.925781 -142.617188 91 -135.953125 C 98.082031 -129.285156 101.625 -120.25 101.625 -108.84375 C 101.625 -107.46875 101.488281 -105.128906 101.21875 -101.828125 L 94 -42.46875 C 92.351562 -29 86.992188 -18.273438 77.921875 -10.296875 C 68.847656 -2.328125 57.578125 1.65625 44.109375 1.65625 Z M 48.234375 -31.546875 C 50.296875 -31.546875 52.046875 -32.367188 53.484375 -34.015625 C 54.929688 -35.660156 55.863281 -37.925781 56.28125 -40.8125 L 63.90625 -103.484375 C 64.175781 -106.367188 63.832031 -108.632812 62.875 -110.28125 C 61.914062 -111.9375 60.40625 -112.765625 58.34375 -112.765625 C 56.144531 -112.765625 54.320312 -111.9375 52.875 -110.28125 C 51.425781 -108.632812 50.566406 -106.367188 50.296875 -103.484375 L 42.671875 -40.8125 C 42.535156 -40.257812 42.46875 -39.503906 42.46875 -38.546875 C 42.46875 -36.347656 42.984375 -34.628906 44.015625 -33.390625 C 45.046875 -32.160156 46.453125 -31.546875 48.234375 -31.546875 Z M 48.234375 -31.546875 "/></g></g></g><g fill="#d32f23" fill-opacity="0.4196"><g transform="translate(297.0418, 490.186278)"><g><path d="M 4.125 0 C 3.300781 0 2.644531 -0.273438 2.15625 -0.828125 C 1.675781 -1.378906 1.507812 -2.132812 1.65625 -3.09375 L 18.546875 -141.203125 C 18.691406 -142.171875 19.070312 -142.925781 19.6875 -143.46875 C 20.300781 -144.019531 21.019531 -144.296875 21.84375 -144.296875 L 53.59375 -144.296875 C 54.414062 -144.296875 55.066406 -144.019531 55.546875 -143.46875 C 56.035156 -142.925781 56.207031 -142.171875 56.0625 -141.203125 L 51.125 -99.765625 C 50.988281 -99.222656 51.054688 -98.953125 51.328125 -98.953125 C 51.597656 -98.953125 51.875 -99.15625 52.15625 -99.5625 L 74.421875 -141.828125 C 75.242188 -143.472656 76.546875 -144.296875 78.328125 -144.296875 L 111.3125 -144.296875 C 112.96875 -144.296875 113.796875 -143.675781 113.796875 -142.4375 C 113.796875 -141.894531 113.585938 -141.28125 113.171875 -140.59375 L 77.515625 -79.5625 C 77.367188 -79.019531 77.296875 -78.609375 77.296875 -78.328125 L 97.296875 -3.5 L 97.296875 -2.6875 C 97.296875 -0.894531 96.332031 0 94.40625 0 L 61.21875 0 C 59.4375 0 58.335938 -0.820312 57.921875 -2.46875 L 47.40625 -44.9375 C 47.40625 -45.351562 47.269531 -45.59375 47 -45.65625 C 46.726562 -45.726562 46.519531 -45.488281 46.375 -44.9375 L 43.90625 -40.40625 L 43.703125 -39.171875 L 39.171875 -3.09375 C 39.023438 -2.132812 38.644531 -1.378906 38.03125 -0.828125 C 37.414062 -0.273438 36.695312 0 35.875 0 Z M 4.125 0 "/></g></g></g><g fill="#d32f23" fill-opacity="0.4196"><g transform="translate(400.305067, 490.186278)"><g><path d="M 94.625 -41.4375 C 93.101562 -28.101562 87.84375 -17.863281 78.84375 -10.71875 C 69.84375 -3.570312 59.019531 0 46.375 0 L 4.125 0 C 3.300781 0 2.644531 -0.273438 2.15625 -0.828125 C 1.675781 -1.378906 1.507812 -2.132812 1.65625 -3.09375 L 18.546875 -141.203125 C 18.691406 -142.171875 19.070312 -142.925781 19.6875 -143.46875 C 20.300781 -144.019531 21.019531 -144.296875 21.84375 -144.296875 L 58.125 -144.296875 C 71.320312 -144.296875 81.597656 -141.507812 88.953125 -135.9375 C 96.304688 -130.375 99.984375 -121.960938 99.984375 -110.703125 C 99.984375 -109.328125 99.84375 -106.988281 99.5625 -103.6875 C 97.914062 -90.90625 92.898438 -81.421875 84.515625 -75.234375 C 83.691406 -74.828125 83.488281 -74.414062 83.90625 -74 C 91.320312 -67.675781 95.03125 -58.8125 95.03125 -47.40625 C 95.03125 -46.175781 94.894531 -44.1875 94.625 -41.4375 Z M 53.390625 -111.109375 C 52.703125 -111.109375 52.359375 -110.765625 52.359375 -110.078125 L 49.6875 -89.046875 C 49.6875 -88.359375 49.957031 -88.015625 50.5 -88.015625 L 51.734375 -88.015625 C 57.648438 -88.015625 61.15625 -91.863281 62.25 -99.5625 L 62.453125 -102.25 C 62.453125 -108.15625 59.84375 -111.109375 54.625 -111.109375 Z M 47.40625 -33.1875 C 50.4375 -33.1875 52.945312 -34.628906 54.9375 -37.515625 C 56.925781 -40.398438 57.921875 -44.523438 57.921875 -49.890625 C 57.921875 -53.046875 57.300781 -55.585938 56.0625 -57.515625 C 54.832031 -59.441406 53.117188 -60.40625 50.921875 -60.40625 L 47.203125 -60.40625 C 46.515625 -60.40625 46.171875 -60.0625 46.171875 -59.375 L 43.078125 -34.21875 C 42.804688 -33.53125 43.082031 -33.1875 43.90625 -33.1875 Z M 47.40625 -33.1875 "/></g></g></g><g fill="#d32f23" fill-opacity="0.4196"><g transform="translate(496.972675, 490.186278)"><g><path d="M 44.109375 1.65625 C 31.878906 1.65625 22.257812 -1.675781 15.25 -8.34375 C 8.238281 -15.007812 4.734375 -24.046875 4.734375 -35.453125 C 4.734375 -36.828125 4.875 -39.164062 5.15625 -42.46875 L 12.578125 -101.828125 C 14.222656 -115.296875 19.546875 -126.015625 28.546875 -133.984375 C 37.546875 -141.960938 48.78125 -145.953125 62.25 -145.953125 C 74.34375 -145.953125 83.925781 -142.617188 91 -135.953125 C 98.082031 -129.285156 101.625 -120.25 101.625 -108.84375 C 101.625 -107.46875 101.488281 -105.128906 101.21875 -101.828125 L 94 -42.46875 C 92.351562 -29 86.992188 -18.273438 77.921875 -10.296875 C 68.847656 -2.328125 57.578125 1.65625 44.109375 1.65625 Z M 48.234375 -31.546875 C 50.296875 -31.546875 52.046875 -32.367188 53.484375 -34.015625 C 54.929688 -35.660156 55.863281 -37.925781 56.28125 -40.8125 L 63.90625 -103.484375 C 64.175781 -106.367188 63.832031 -108.632812 62.875 -110.28125 C 61.914062 -111.9375 60.40625 -112.765625 58.34375 -112.765625 C 56.144531 -112.765625 54.320312 -111.9375 52.875 -110.28125 C 51.425781 -108.632812 50.566406 -106.367188 50.296875 -103.484375 L 42.671875 -40.8125 C 42.535156 -40.257812 42.46875 -39.503906 42.46875 -38.546875 C 42.46875 -36.347656 42.984375 -34.628906 44.015625 -33.390625 C 45.046875 -32.160156 46.453125 -31.546875 48.234375 -31.546875 Z M 48.234375 -31.546875 "/></g></g></g><g fill="#d32f23" fill-opacity="0.4196"><g transform="translate(593.640283, 490.186278)"><g><path d="M 44.109375 1.65625 C 31.878906 1.65625 22.257812 -1.675781 15.25 -8.34375 C 8.238281 -15.007812 4.734375 -24.046875 4.734375 -35.453125 C 4.734375 -36.828125 4.875 -39.164062 5.15625 -42.46875 L 12.578125 -101.828125 C 14.222656 -115.296875 19.546875 -126.015625 28.546875 -133.984375 C 37.546875 -141.960938 48.78125 -145.953125 62.25 -145.953125 C 74.34375 -145.953125 83.925781 -142.617188 91 -135.953125 C 98.082031 -129.285156 101.625 -120.25 101.625 -108.84375 C 101.625 -107.46875 101.488281 -105.128906 101.21875 -101.828125 L 94 -42.46875 C 92.351562 -29 86.992188 -18.273438 77.921875 -10.296875 C 68.847656 -2.328125 57.578125 1.65625 44.109375 1.65625 Z M 48.234375 -31.546875 C 50.296875 -31.546875 52.046875 -32.367188 53.484375 -34.015625 C 54.929688 -35.660156 55.863281 -37.925781 56.28125 -40.8125 L 63.90625 -103.484375 C 64.175781 -106.367188 63.832031 -108.632812 62.875 -110.28125 C 61.914062 -111.9375 60.40625 -112.765625 58.34375 -112.765625 C 56.144531 -112.765625 54.320312 -111.9375 52.875 -110.28125 C 51.425781 -108.632812 50.566406 -106.367188 50.296875 -103.484375 L 42.671875 -40.8125 C 42.535156 -40.257812 42.46875 -39.503906 42.46875 -38.546875 C 42.46875 -36.347656 42.984375 -34.628906 44.015625 -33.390625 C 45.046875 -32.160156 46.453125 -31.546875 48.234375 -31.546875 Z M 48.234375 -31.546875 "/></g></g></g><g fill="#d32f23" fill-opacity="0.4196"><g transform="translate(690.30789, 490.186278)"><g><path d="M 4.125 0 C 3.300781 0 2.644531 -0.273438 2.15625 -0.828125 C 1.675781 -1.378906 1.507812 -2.132812 1.65625 -3.09375 L 18.546875 -141.203125 C 18.691406 -142.171875 19.070312 -142.925781 19.6875 -143.46875 C 20.300781 -144.019531 21.019531 -144.296875 21.84375 -144.296875 L 53.59375 -144.296875 C 54.414062 -144.296875 55.066406 -144.019531 55.546875 -143.46875 C 56.035156 -142.925781 56.207031 -142.171875 56.0625 -141.203125 L 51.125 -99.765625 C 50.988281 -99.222656 51.054688 -98.953125 51.328125 -98.953125 C 51.597656 -98.953125 51.875 -99.15625 52.15625 -99.5625 L 74.421875 -141.828125 C 75.242188 -143.472656 76.546875 -144.296875 78.328125 -144.296875 L 111.3125 -144.296875 C 112.96875 -144.296875 113.796875 -143.675781 113.796875 -142.4375 C 113.796875 -141.894531 113.585938 -141.28125 113.171875 -140.59375 L 77.515625 -79.5625 C 77.367188 -79.019531 77.296875 -78.609375 77.296875 -78.328125 L 97.296875 -3.5 L 97.296875 -2.6875 C 97.296875 -0.894531 96.332031 0 94.40625 0 L 61.21875 0 C 59.4375 0 58.335938 -0.820312 57.921875 -2.46875 L 47.40625 -44.9375 C 47.40625 -45.351562 47.269531 -45.59375 47 -45.65625 C 46.726562 -45.726562 46.519531 -45.488281 46.375 -44.9375 L 43.90625 -40.40625 L 43.703125 -39.171875 L 39.171875 -3.09375 C 39.023438 -2.132812 38.644531 -1.378906 38.03125 -0.828125 C 37.414062 -0.273438 36.695312 0 35.875 0 Z M 4.125 0 "/></g></g></g><g fill="#ffffff" fill-opacity="1"><g transform="translate(2.354254, 484.669017)"><g><path d="M 43.5 1.65625 C 31.539062 1.65625 22.085938 -1.640625 15.140625 -8.234375 C 8.203125 -14.835938 4.734375 -23.84375 4.734375 -35.25 C 4.734375 -36.625 4.875 -38.960938 5.15625 -42.265625 L 12.578125 -102.453125 C 14.222656 -115.785156 19.507812 -126.367188 28.4375 -134.203125 C 37.375 -142.035156 48.441406 -145.953125 61.640625 -145.953125 C 73.585938 -145.953125 83.066406 -142.6875 90.078125 -136.15625 C 97.085938 -129.625 100.59375 -120.65625 100.59375 -109.25 C 100.59375 -108.019531 100.457031 -105.753906 100.1875 -102.453125 L 99.984375 -101.421875 C 99.835938 -100.460938 99.457031 -99.671875 98.84375 -99.046875 C 98.226562 -98.429688 97.507812 -98.125 96.6875 -98.125 L 64.9375 -97.09375 C 62.875 -97.09375 61.976562 -98.054688 62.25 -99.984375 L 62.875 -105.125 C 63.144531 -107.46875 62.800781 -109.328125 61.84375 -110.703125 C 60.882812 -112.078125 59.507812 -112.765625 57.71875 -112.765625 C 55.789062 -112.765625 54.175781 -112.078125 52.875 -110.703125 C 51.570312 -109.328125 50.78125 -107.46875 50.5 -105.125 L 42.46875 -38.953125 C 42.1875 -36.753906 42.492188 -34.96875 43.390625 -33.59375 C 44.285156 -32.226562 45.695312 -31.546875 47.625 -31.546875 C 49.539062 -31.546875 51.148438 -32.195312 52.453125 -33.5 C 53.765625 -34.800781 54.554688 -36.617188 54.828125 -38.953125 L 55.453125 -44.53125 C 55.585938 -45.488281 55.960938 -46.207031 56.578125 -46.6875 C 57.203125 -47.164062 57.925781 -47.40625 58.75 -47.40625 L 90.296875 -46.375 C 91.253906 -46.375 91.972656 -46.066406 92.453125 -45.453125 C 92.929688 -44.835938 93.101562 -44.046875 92.96875 -43.078125 L 92.765625 -42.265625 C 91.117188 -28.929688 85.789062 -18.273438 76.78125 -10.296875 C 67.78125 -2.328125 56.6875 1.65625 43.5 1.65625 Z M 43.5 1.65625 "/></g></g></g><g fill="#ffffff" fill-opacity="1"><g transform="translate(97.57905, 484.669017)"><g><path d="M 44.109375 1.65625 C 31.878906 1.65625 22.257812 -1.675781 15.25 -8.34375 C 8.238281 -15.007812 4.734375 -24.046875 4.734375 -35.453125 C 4.734375 -36.828125 4.875 -39.164062 5.15625 -42.46875 L 12.578125 -101.828125 C 14.222656 -115.296875 19.546875 -126.015625 28.546875 -133.984375 C 37.546875 -141.960938 48.78125 -145.953125 62.25 -145.953125 C 74.34375 -145.953125 83.925781 -142.617188 91 -135.953125 C 98.082031 -129.285156 101.625 -120.25 101.625 -108.84375 C 101.625 -107.46875 101.488281 -105.128906 101.21875 -101.828125 L 94 -42.46875 C 92.351562 -29 86.992188 -18.273438 77.921875 -10.296875 C 68.847656 -2.328125 57.578125 1.65625 44.109375 1.65625 Z M 48.234375 -31.546875 C 50.296875 -31.546875 52.046875 -32.367188 53.484375 -34.015625 C 54.929688 -35.660156 55.863281 -37.925781 56.28125 -40.8125 L 63.90625 -103.484375 C 64.175781 -106.367188 63.832031 -108.632812 62.875 -110.28125 C 61.914062 -111.9375 60.40625 -112.765625 58.34375 -112.765625 C 56.144531 -112.765625 54.320312 -111.9375 52.875 -110.28125 C 51.425781 -108.632812 50.566406 -106.367188 50.296875 -103.484375 L 42.671875 -40.8125 C 42.535156 -40.257812 42.46875 -39.503906 42.46875 -38.546875 C 42.46875 -36.347656 42.984375 -34.628906 44.015625 -33.390625 C 45.046875 -32.160156 46.453125 -31.546875 48.234375 -31.546875 Z M 48.234375 -31.546875 "/></g></g></g><g fill="#ffffff" fill-opacity="1"><g transform="translate(194.246658, 484.669017)"><g><path d="M 44.109375 1.65625 C 31.878906 1.65625 22.257812 -1.675781 15.25 -8.34375 C 8.238281 -15.007812 4.734375 -24.046875 4.734375 -35.453125 C 4.734375 -36.828125 4.875 -39.164062 5.15625 -42.46875 L 12.578125 -101.828125 C 14.222656 -115.296875 19.546875 -126.015625 28.546875 -133.984375 C 37.546875 -141.960938 48.78125 -145.953125 62.25 -145.953125 C 74.34375 -145.953125 83.925781 -142.617188 91 -135.953125 C 98.082031 -129.285156 101.625 -120.25 101.625 -108.84375 C 101.625 -107.46875 101.488281 -105.128906 101.21875 -101.828125 L 94 -42.46875 C 92.351562 -29 86.992188 -18.273438 77.921875 -10.296875 C 68.847656 -2.328125 57.578125 1.65625 44.109375 1.65625 Z M 48.234375 -31.546875 C 50.296875 -31.546875 52.046875 -32.367188 53.484375 -34.015625 C 54.929688 -35.660156 55.863281 -37.925781 56.28125 -40.8125 L 63.90625 -103.484375 C 64.175781 -106.367188 63.832031 -108.632812 62.875 -110.28125 C 61.914062 -111.9375 60.40625 -112.765625 58.34375 -112.765625 C 56.144531 -112.765625 54.320312 -111.9375 52.875 -110.28125 C 51.425781 -108.632812 50.566406 -106.367188 50.296875 -103.484375 L 42.671875 -40.8125 C 42.535156 -40.257812 42.46875 -39.503906 42.46875 -38.546875 C 42.46875 -36.347656 42.984375 -34.628906 44.015625 -33.390625 C 45.046875 -32.160156 46.453125 -31.546875 48.234375 -31.546875 Z M 48.234375 -31.546875 "/></g></g></g><g fill="#ffffff" fill-opacity="1"><g transform="translate(290.914265, 484.669017)"><g><path d="M 4.125 0 C 3.300781 0 2.644531 -0.273438 2.15625 -0.828125 C 1.675781 -1.378906 1.507812 -2.132812 1.65625 -3.09375 L 18.546875 -141.203125 C 18.691406 -142.171875 19.070312 -142.925781 19.6875 -143.46875 C 20.300781 -144.019531 21.019531 -144.296875 21.84375 -144.296875 L 53.59375 -144.296875 C 54.414062 -144.296875 55.066406 -144.019531 55.546875 -143.46875 C 56.035156 -142.925781 56.207031 -142.171875 56.0625 -141.203125 L 51.125 -99.765625 C 50.988281 -99.222656 51.054688 -98.953125 51.328125 -98.953125 C 51.597656 -98.953125 51.875 -99.15625 52.15625 -99.5625 L 74.421875 -141.828125 C 75.242188 -143.472656 76.546875 -144.296875 78.328125 -144.296875 L 111.3125 -144.296875 C 112.96875 -144.296875 113.796875 -143.675781 113.796875 -142.4375 C 113.796875 -141.894531 113.585938 -141.28125 113.171875 -140.59375 L 77.515625 -79.5625 C 77.367188 -79.019531 77.296875 -78.609375 77.296875 -78.328125 L 97.296875 -3.5 L 97.296875 -2.6875 C 97.296875 -0.894531 96.332031 0 94.40625 0 L 61.21875 0 C 59.4375 0 58.335938 -0.820312 57.921875 -2.46875 L 47.40625 -44.9375 C 47.40625 -45.351562 47.269531 -45.59375 47 -45.65625 C 46.726562 -45.726562 46.519531 -45.488281 46.375 -44.9375 L 43.90625 -40.40625 L 43.703125 -39.171875 L 39.171875 -3.09375 C 39.023438 -2.132812 38.644531 -1.378906 38.03125 -0.828125 C 37.414062 -0.273438 36.695312 0 35.875 0 Z M 4.125 0 "/></g></g></g><g fill="#ffffff" fill-opacity="1"><g transform="translate(394.177532, 484.669017)"><g><path d="M 94.625 -41.4375 C 93.101562 -28.101562 87.84375 -17.863281 78.84375 -10.71875 C 69.84375 -3.570312 59.019531 0 46.375 0 L 4.125 0 C 3.300781 0 2.644531 -0.273438 2.15625 -0.828125 C 1.675781 -1.378906 1.507812 -2.132812 1.65625 -3.09375 L 18.546875 -141.203125 C 18.691406 -142.171875 19.070312 -142.925781 19.6875 -143.46875 C 20.300781 -144.019531 21.019531 -144.296875 21.84375 -144.296875 L 58.125 -144.296875 C 71.320312 -144.296875 81.597656 -141.507812 88.953125 -135.9375 C 96.304688 -130.375 99.984375 -121.960938 99.984375 -110.703125 C 99.984375 -109.328125 99.84375 -106.988281 99.5625 -103.6875 C 97.914062 -90.90625 92.898438 -81.421875 84.515625 -75.234375 C 83.691406 -74.828125 83.488281 -74.414062 83.90625 -74 C 91.320312 -67.675781 95.03125 -58.8125 95.03125 -47.40625 C 95.03125 -46.175781 94.894531 -44.1875 94.625 -41.4375 Z M 53.390625 -111.109375 C 52.703125 -111.109375 52.359375 -110.765625 52.359375 -110.078125 L 49.6875 -89.046875 C 49.6875 -88.359375 49.957031 -88.015625 50.5 -88.015625 L 51.734375 -88.015625 C 57.648438 -88.015625 61.15625 -91.863281 62.25 -99.5625 L 62.453125 -102.25 C 62.453125 -108.15625 59.84375 -111.109375 54.625 -111.109375 Z M 47.40625 -33.1875 C 50.4375 -33.1875 52.945312 -34.628906 54.9375 -37.515625 C 56.925781 -40.398438 57.921875 -44.523438 57.921875 -49.890625 C 57.921875 -53.046875 57.300781 -55.585938 56.0625 -57.515625 C 54.832031 -59.441406 53.117188 -60.40625 50.921875 -60.40625 L 47.203125 -60.40625 C 46.515625 -60.40625 46.171875 -60.0625 46.171875 -59.375 L 43.078125 -34.21875 C 42.804688 -33.53125 43.082031 -33.1875 43.90625 -33.1875 Z M 47.40625 -33.1875 "/></g></g></g><g fill="#ffffff" fill-opacity="1"><g transform="translate(490.84514, 484.669017)"><g><path d="M 44.109375 1.65625 C 31.878906 1.65625 22.257812 -1.675781 15.25 -8.34375 C 8.238281 -15.007812 4.734375 -24.046875 4.734375 -35.453125 C 4.734375 -36.828125 4.875 -39.164062 5.15625 -42.46875 L 12.578125 -101.828125 C 14.222656 -115.296875 19.546875 -126.015625 28.546875 -133.984375 C 37.546875 -141.960938 48.78125 -145.953125 62.25 -145.953125 C 74.34375 -145.953125 83.925781 -142.617188 91 -135.953125 C 98.082031 -129.285156 101.625 -120.25 101.625 -108.84375 C 101.625 -107.46875 101.488281 -105.128906 101.21875 -101.828125 L 94 -42.46875 C 92.351562 -29 86.992188 -18.273438 77.921875 -10.296875 C 68.847656 -2.328125 57.578125 1.65625 44.109375 1.65625 Z M 48.234375 -31.546875 C 50.296875 -31.546875 52.046875 -32.367188 53.484375 -34.015625 C 54.929688 -35.660156 55.863281 -37.925781 56.28125 -40.8125 L 63.90625 -103.484375 C 64.175781 -106.367188 63.832031 -108.632812 62.875 -110.28125 C 61.914062 -111.9375 60.40625 -112.765625 58.34375 -112.765625 C 56.144531 -112.765625 54.320312 -111.9375 52.875 -110.28125 C 51.425781 -108.632812 50.566406 -106.367188 50.296875 -103.484375 L 42.671875 -40.8125 C 42.535156 -40.257812 42.46875 -39.503906 42.46875 -38.546875 C 42.46875 -36.347656 42.984375 -34.628906 44.015625 -33.390625 C 45.046875 -32.160156 46.453125 -31.546875 48.234375 -31.546875 Z M 48.234375 -31.546875 "/></g></g></g><g fill="#ffffff" fill-opacity="1"><g transform="translate(587.512748, 484.669017)"><g><path d="M 44.109375 1.65625 C 31.878906 1.65625 22.257812 -1.675781 15.25 -8.34375 C 8.238281 -15.007812 4.734375 -24.046875 4.734375 -35.453125 C 4.734375 -36.828125 4.875 -39.164062 5.15625 -42.46875 L 12.578125 -101.828125 C 14.222656 -115.296875 19.546875 -126.015625 28.546875 -133.984375 C 37.546875 -141.960938 48.78125 -145.953125 62.25 -145.953125 C 74.34375 -145.953125 83.925781 -142.617188 91 -135.953125 C 98.082031 -129.285156 101.625 -120.25 101.625 -108.84375 C 101.625 -107.46875 101.488281 -105.128906 101.21875 -101.828125 L 94 -42.46875 C 92.351562 -29 86.992188 -18.273438 77.921875 -10.296875 C 68.847656 -2.328125 57.578125 1.65625 44.109375 1.65625 Z M 48.234375 -31.546875 C 50.296875 -31.546875 52.046875 -32.367188 53.484375 -34.015625 C 54.929688 -35.660156 55.863281 -37.925781 56.28125 -40.8125 L 63.90625 -103.484375 C 64.175781 -106.367188 63.832031 -108.632812 62.875 -110.28125 C 61.914062 -111.9375 60.40625 -112.765625 58.34375 -112.765625 C 56.144531 -112.765625 54.320312 -111.9375 52.875 -110.28125 C 51.425781 -108.632812 50.566406 -106.367188 50.296875 -103.484375 L 42.671875 -40.8125 C 42.535156 -40.257812 42.46875 -39.503906 42.46875 -38.546875 C 42.46875 -36.347656 42.984375 -34.628906 44.015625 -33.390625 C 45.046875 -32.160156 46.453125 -31.546875 48.234375 -31.546875 Z M 48.234375 -31.546875 "/></g></g></g><g fill="#ffffff" fill-opacity="1"><g transform="translate(684.180356, 484.669017)"><g><path d="M 4.125 0 C 3.300781 0 2.644531 -0.273438 2.15625 -0.828125 C 1.675781 -1.378906 1.507812 -2.132812 1.65625 -3.09375 L 18.546875 -141.203125 C 18.691406 -142.171875 19.070312 -142.925781 19.6875 -143.46875 C 20.300781 -144.019531 21.019531 -144.296875 21.84375 -144.296875 L 53.59375 -144.296875 C 54.414062 -144.296875 55.066406 -144.019531 55.546875 -143.46875 C 56.035156 -142.925781 56.207031 -142.171875 56.0625 -141.203125 L 51.125 -99.765625 C 50.988281 -99.222656 51.054688 -98.953125 51.328125 -98.953125 C 51.597656 -98.953125 51.875 -99.15625 52.15625 -99.5625 L 74.421875 -141.828125 C 75.242188 -143.472656 76.546875 -144.296875 78.328125 -144.296875 L 111.3125 -144.296875 C 112.96875 -144.296875 113.796875 -143.675781 113.796875 -142.4375 C 113.796875 -141.894531 113.585938 -141.28125 113.171875 -140.59375 L 77.515625 -79.5625 C 77.367188 -79.019531 77.296875 -78.609375 77.296875 -78.328125 L 97.296875 -3.5 L 97.296875 -2.6875 C 97.296875 -0.894531 96.332031 0 94.40625 0 L 61.21875 0 C 59.4375 0 58.335938 -0.820312 57.921875 -2.46875 L 47.40625 -44.9375 C 47.40625 -45.351562 47.269531 -45.59375 47 -45.65625 C 46.726562 -45.726562 46.519531 -45.488281 46.375 -44.9375 L 43.90625 -40.40625 L 43.703125 -39.171875 L 39.171875 -3.09375 C 39.023438 -2.132812 38.644531 -1.378906 38.03125 -0.828125 C 37.414062 -0.273438 36.695312 0 35.875 0 Z M 4.125 0 "/></g></g></g><g fill="#d32f23" fill-opacity="0.4196"><g transform="translate(251.676335, 653.775116)"><g><path d="M 64.109375 0 C 62.179688 0 61.289062 -0.960938 61.4375 -2.890625 L 61.015625 -18.546875 C 61.148438 -18.828125 61.082031 -19.066406 60.8125 -19.265625 C 60.539062 -19.472656 60.265625 -19.578125 59.984375 -19.578125 L 42.046875 -19.578125 C 41.359375 -19.578125 40.878906 -19.234375 40.609375 -18.546875 L 36.6875 -2.890625 C 36.28125 -0.960938 35.113281 0 33.1875 0 L 1.859375 0 C -0.203125 0 -0.957031 -1.097656 -0.40625 -3.296875 L 44.9375 -141.625 C 45.488281 -143.40625 46.726562 -144.296875 48.65625 -144.296875 L 85.140625 -144.296875 C 87.054688 -144.296875 88.085938 -143.40625 88.234375 -141.625 L 99.5625 -3.296875 L 99.5625 -2.890625 C 99.5625 -0.960938 98.53125 0 96.46875 0 Z M 49.0625 -50.296875 C 48.789062 -49.609375 49 -49.265625 49.6875 -49.265625 L 59.375 -49.265625 C 59.78125 -49.265625 60.125 -49.609375 60.40625 -50.296875 L 59.578125 -88.4375 C 59.578125 -88.988281 59.40625 -89.226562 59.0625 -89.15625 C 58.71875 -89.082031 58.546875 -88.84375 58.546875 -88.4375 Z M 49.0625 -50.296875 "/></g></g></g><g fill="#d32f23" fill-opacity="0.4196"><g transform="translate(357.825223, 653.775116)"><g><path d="M 66.578125 -144.296875 C 77.578125 -144.296875 86.269531 -140.753906 92.65625 -133.671875 C 99.050781 -126.597656 102.25 -117.222656 102.25 -105.546875 C 102.25 -102.242188 102.109375 -99.703125 101.828125 -97.921875 C 100.734375 -89.117188 98.15625 -81.347656 94.09375 -74.609375 C 90.039062 -67.878906 84.816406 -62.691406 78.421875 -59.046875 C 72.035156 -55.410156 65 -53.59375 57.3125 -53.59375 L 45.96875 -53.59375 C 45.28125 -53.59375 44.9375 -53.25 44.9375 -52.5625 L 38.75 -3.09375 C 38.613281 -2.132812 38.234375 -1.378906 37.609375 -0.828125 C 36.992188 -0.273438 36.273438 0 35.453125 0 L 3.703125 0 C 2.878906 0 2.226562 -0.273438 1.75 -0.828125 C 1.269531 -1.378906 1.097656 -2.132812 1.234375 -3.09375 L 18.140625 -141.203125 C 18.273438 -142.171875 18.648438 -142.925781 19.265625 -143.46875 C 19.890625 -144.019531 20.613281 -144.296875 21.4375 -144.296875 Z M 52.359375 -83.484375 C 55.378906 -83.484375 57.953125 -84.617188 60.078125 -86.890625 C 62.210938 -89.160156 63.554688 -92.5625 64.109375 -97.09375 C 64.242188 -97.914062 64.3125 -99.082031 64.3125 -100.59375 C 64.3125 -104.03125 63.554688 -106.640625 62.046875 -108.421875 C 60.535156 -110.210938 58.472656 -111.109375 55.859375 -111.109375 L 52.984375 -111.109375 C 52.296875 -111.109375 51.953125 -110.765625 51.953125 -110.078125 L 48.859375 -84.515625 C 48.578125 -83.828125 48.851562 -83.484375 49.6875 -83.484375 Z M 52.359375 -83.484375 "/></g></g></g><g fill="#d32f23" fill-opacity="0.4196"><g transform="translate(454.080604, 653.775116)"><g><path d="M 66.578125 -144.296875 C 77.578125 -144.296875 86.269531 -140.753906 92.65625 -133.671875 C 99.050781 -126.597656 102.25 -117.222656 102.25 -105.546875 C 102.25 -102.242188 102.109375 -99.703125 101.828125 -97.921875 C 100.734375 -89.117188 98.15625 -81.347656 94.09375 -74.609375 C 90.039062 -67.878906 84.816406 -62.691406 78.421875 -59.046875 C 72.035156 -55.410156 65 -53.59375 57.3125 -53.59375 L 45.96875 -53.59375 C 45.28125 -53.59375 44.9375 -53.25 44.9375 -52.5625 L 38.75 -3.09375 C 38.613281 -2.132812 38.234375 -1.378906 37.609375 -0.828125 C 36.992188 -0.273438 36.273438 0 35.453125 0 L 3.703125 0 C 2.878906 0 2.226562 -0.273438 1.75 -0.828125 C 1.269531 -1.378906 1.097656 -2.132812 1.234375 -3.09375 L 18.140625 -141.203125 C 18.273438 -142.171875 18.648438 -142.925781 19.265625 -143.46875 C 19.890625 -144.019531 20.613281 -144.296875 21.4375 -144.296875 Z M 52.359375 -83.484375 C 55.378906 -83.484375 57.953125 -84.617188 60.078125 -86.890625 C 62.210938 -89.160156 63.554688 -92.5625 64.109375 -97.09375 C 64.242188 -97.914062 64.3125 -99.082031 64.3125 -100.59375 C 64.3125 -104.03125 63.554688 -106.640625 62.046875 -108.421875 C 60.535156 -110.210938 58.472656 -111.109375 55.859375 -111.109375 L 52.984375 -111.109375 C 52.296875 -111.109375 51.953125 -110.765625 51.953125 -110.078125 L 48.859375 -84.515625 C 48.578125 -83.828125 48.851562 -83.484375 49.6875 -83.484375 Z M 52.359375 -83.484375 "/></g></g></g><g fill="#ffffff" fill-opacity="1"><g transform="translate(245.548797, 648.257876)"><g><path d="M 64.109375 0 C 62.179688 0 61.289062 -0.960938 61.4375 -2.890625 L 61.015625 -18.546875 C 61.148438 -18.828125 61.082031 -19.066406 60.8125 -19.265625 C 60.539062 -19.472656 60.265625 -19.578125 59.984375 -19.578125 L 42.046875 -19.578125 C 41.359375 -19.578125 40.878906 -19.234375 40.609375 -18.546875 L 36.6875 -2.890625 C 36.28125 -0.960938 35.113281 0 33.1875 0 L 1.859375 0 C -0.203125 0 -0.957031 -1.097656 -0.40625 -3.296875 L 44.9375 -141.625 C 45.488281 -143.40625 46.726562 -144.296875 48.65625 -144.296875 L 85.140625 -144.296875 C 87.054688 -144.296875 88.085938 -143.40625 88.234375 -141.625 L 99.5625 -3.296875 L 99.5625 -2.890625 C 99.5625 -0.960938 98.53125 0 96.46875 0 Z M 49.0625 -50.296875 C 48.789062 -49.609375 49 -49.265625 49.6875 -49.265625 L 59.375 -49.265625 C 59.78125 -49.265625 60.125 -49.609375 60.40625 -50.296875 L 59.578125 -88.4375 C 59.578125 -88.988281 59.40625 -89.226562 59.0625 -89.15625 C 58.71875 -89.082031 58.546875 -88.84375 58.546875 -88.4375 Z M 49.0625 -50.296875 "/></g></g></g><g fill="#ffffff" fill-opacity="1"><g transform="translate(351.697685, 648.257876)"><g><path d="M 66.578125 -144.296875 C 77.578125 -144.296875 86.269531 -140.753906 92.65625 -133.671875 C 99.050781 -126.597656 102.25 -117.222656 102.25 -105.546875 C 102.25 -102.242188 102.109375 -99.703125 101.828125 -97.921875 C 100.734375 -89.117188 98.15625 -81.347656 94.09375 -74.609375 C 90.039062 -67.878906 84.816406 -62.691406 78.421875 -59.046875 C 72.035156 -55.410156 65 -53.59375 57.3125 -53.59375 L 45.96875 -53.59375 C 45.28125 -53.59375 44.9375 -53.25 44.9375 -52.5625 L 38.75 -3.09375 C 38.613281 -2.132812 38.234375 -1.378906 37.609375 -0.828125 C 36.992188 -0.273438 36.273438 0 35.453125 0 L 3.703125 0 C 2.878906 0 2.226562 -0.273438 1.75 -0.828125 C 1.269531 -1.378906 1.097656 -2.132812 1.234375 -3.09375 L 18.140625 -141.203125 C 18.273438 -142.171875 18.648438 -142.925781 19.265625 -143.46875 C 19.890625 -144.019531 20.613281 -144.296875 21.4375 -144.296875 Z M 52.359375 -83.484375 C 55.378906 -83.484375 57.953125 -84.617188 60.078125 -86.890625 C 62.210938 -89.160156 63.554688 -92.5625 64.109375 -97.09375 C 64.242188 -97.914062 64.3125 -99.082031 64.3125 -100.59375 C 64.3125 -104.03125 63.554688 -106.640625 62.046875 -108.421875 C 60.535156 -110.210938 58.472656 -111.109375 55.859375 -111.109375 L 52.984375 -111.109375 C 52.296875 -111.109375 51.953125 -110.765625 51.953125 -110.078125 L 48.859375 -84.515625 C 48.578125 -83.828125 48.851562 -83.484375 49.6875 -83.484375 Z M 52.359375 -83.484375 "/></g></g></g><g fill="#ffffff" fill-opacity="1"><g transform="translate(447.953066, 648.257876)"><g><path d="M 66.578125 -144.296875 C 77.578125 -144.296875 86.269531 -140.753906 92.65625 -133.671875 C 99.050781 -126.597656 102.25 -117.222656 102.25 -105.546875 C 102.25 -102.242188 102.109375 -99.703125 101.828125 -97.921875 C 100.734375 -89.117188 98.15625 -81.347656 94.09375 -74.609375 C 90.039062 -67.878906 84.816406 -62.691406 78.421875 -59.046875 C 72.035156 -55.410156 65 -53.59375 57.3125 -53.59375 L 45.96875 -53.59375 C 45.28125 -53.59375 44.9375 -53.25 44.9375 -52.5625 L 38.75 -3.09375 C 38.613281 -2.132812 38.234375 -1.378906 37.609375 -0.828125 C 36.992188 -0.273438 36.273438 0 35.453125 0 L 3.703125 0 C 2.878906 0 2.226562 -0.273438 1.75 -0.828125 C 1.269531 -1.378906 1.097656 -2.132812 1.234375 -3.09375 L 18.140625 -141.203125 C 18.273438 -142.171875 18.648438 -142.925781 19.265625 -143.46875 C 19.890625 -144.019531 20.613281 -144.296875 21.4375 -144.296875 Z M 52.359375 -83.484375 C 55.378906 -83.484375 57.953125 -84.617188 60.078125 -86.890625 C 62.210938 -89.160156 63.554688 -92.5625 64.109375 -97.09375 C 64.242188 -97.914062 64.3125 -99.082031 64.3125 -100.59375 C 64.3125 -104.03125 63.554688 -106.640625 62.046875 -108.421875 C 60.535156 -110.210938 58.472656 -111.109375 55.859375 -111.109375 L 52.984375 -111.109375 C 52.296875 -111.109375 51.953125 -110.765625 51.953125 -110.078125 L 48.859375 -84.515625 C 48.578125 -83.828125 48.851562 -83.484375 49.6875 -83.484375 Z M 52.359375 -83.484375 "/></g></g></g></svg>